{"title":"Lord of the Flies 1990 DVDrip English Klam","uid":9154118,"size":1262627890,"categoryP":"video","categoryS":"movies","magnet":"?xt=urn:btih:8ca83159195d6270d26ace6305388dc415066543&amp;dn=Lord+of+the+Flies+1990+DVDrip+English+Klam&amp;tr=udp%3A%2F%2Ftracker.openbittorrent.com%3A80&amp;tr=udp%3A%2F%2Fopen.demonii.com%3A1337&amp;tr=udp%3A%2F%2Ftracker.coppersurfer.tk%3A6969&amp;tr=udp%3A%2F%2Fexodus.desync.com%3A6969","seeders":14,"leechers":3,"uploader":"Klambake","files":-1,"time":1383745224,"description":"[img] http://img703.imageshack.us/img703/8185/k3jt.jpg[/img]\n\nWith: Balthazar Getty, Chris Furrh and Danuel Pipoly\n\nNa een vliegtuigcrash stranden 25 schoolkinderen en een zwaargewonde piloot op een onbewoond eiland. Een van hen, Ralph, wordt als leider gekozen. Samen met de brave maar wat vadsige Piggy probeert hij hun leven op het eiland enigszins te organiseren. Er wordt ook afgesproken dat ze op het hoogste punt van het eiland een vuur zullen maken dat dag en nacht moet blijven branden. Al snel blijkt echter dat een groep jongens, onder leiding van de ambitieuze Jack, de ernst van de zaak niet wil inzien. Ze spelen liever dan vis te vangen en jagen liever dan dat ze het vuur aanhouden. Net op het ogenblik dat ze het vuur hebben laten uitgaan, vliegt er een helikopter over.\n\nStranded on an island, a group of schoolboys degenerate into savagery. \n &lt;a href=&quot;\nhttp://www.imdb.com/title/tt0100054&quot; rel=&quot;nofollow&quot; target=&quot;_NEW&quot;&gt;\nhttp://www.imdb.com/title/tt0100054&lt;/a&gt;\t\n\n------------------------ Dutch Friends ------------------------\n---------------------------------------------------------------\n- Bezoek ook eens mijn vrienden op: &lt;a href=&quot; http://www.Film-Test.nl&quot; rel=&quot;nofollow&quot; target=&quot;_NEW&quot;&gt; http://www.Film-Test.nl&lt;/a&gt; --\n----- voor mijn Nederlandse Sync. ondertitels ---- en meer ----\n------- http://www.Film-Test.nl ---- Over Films en meer -------\n---------------------------------------------------------------\n\nGeneral:\n\nComplete name                    : Lord of the FliesLord of the Flies.avi\nFormat                           : AVI\nFormat/Info                      : Audio Video Interleave\nFile size                        : 1.18 GiB\nDuration                         : 1h 26mn\nOverall bit rate                 : 1 945 Kbps\n\nVideo:\n\nFormat                           : MPEG-4 Visual\nFormat profile                   : Simple@L3\nFormat settings, BVOP            : No\nFormat settings, QPel            : No\nFormat settings, GMC             : No warppoints\nFormat settings, Matrix          : Default (H.263)\nCodec ID                         : XVID\nCodec ID/Hint                    : XviD\nDuration                         : 1h 26mn\nBit rate                         : 1 742 Kbps\nWidth                            : 652 pixels\nHeight                           : 352 pixels\nDisplay aspect ratio             : 1.852\nFrame rate                       : 25.000 fps\nColor space                      : YUV\nChroma subsampling               : 4:2:0\nBit depth                        : 8 bits\nScan type                        : Progressive\nCompression mode                 : Lossy\nBits/(Pixel*Frame)               : 0.304\nStream size                      : 1.05 GiB (90%)\nWriting library                  : XviD 1.1.2 (UTC 2006-11-01)\n\nAudio:\n\nFormat                           : AC-3\nFormat/Info                      : Audio Coding 3\nMode extension                   : CM (complete main)\nCodec ID                         : 2000\nDuration                         : 1h 26mn\nBit rate mode                    : Constant\nBit rate                         : 192 Kbps\nChannel(s)                       : 2 channels\nChannel positions                : Front: L R\nSampling rate                    : 48.0 KHz\nBit depth                        : 16 bits\nCompression mode                 : Lossy\nStream size                      : 119 MiB (10%)\nAlignment                        : Aligned on interleaves\nInterleave, duration             : 32 ms (0.80 video frame)","torrent":{"xt":"urn:btih:8ca83159195d6270d26ace6305388dc415066543","amp;dn":"Lord+of+the+Flies+1990+DVDrip+English+Klam","amp;tr":["udp%3A%2F%2Ftracker.openbittorrent.com%3A80","udp%3A%2F%2Fopen.demonii.com%3A1337","udp%3A%2F%2Ftracker.coppersurfer.tk%3A6969","udp%3A%2F%2Fexodus.desync.com%3A6969"],"infoHash":"8ca83159195d6270d26ace6305388dc415066543","infoHashBuffer":{"type":"Buffer","data":[140,168,49,89,25,93,98,112,210,106,206,99,5,56,141,196,21,6,101,67]},"announce":[],"urlList":[]}}